<?xml version="1.0" standalone="no"?>
<!DOCTYPE svg PUBLIC "-//W3C//DTD SVG 20010904//EN" "http://www.w3.org/TR/2001/REC-SVG-20010904/DTD/svg10.dtd">
<svg version="1.0" xmlns="http://www.w3.org/2000/svg" width="512.000000pt" height="512.000000pt"
   viewBox="0 0 512.000000 512.000000" preserveAspectRatio="xMidYMid meet">

   <g transform="translate(0.000000,512.000000) scale(0.100000,-0.100000)" fill="#000000" stroke="none">
      <path d="M3709 4479 c-123 -194 -227 -358 -231 -364 -5 -8 13 -27 54 -53 l61
-40 303 270 c167 149 304 271 304 272 0 1 -60 61 -133 134 l-133 133 -225
-352z" />
      <path d="M4490 4073 c-91 -152 -177 -297 -193 -323 l-27 -47 55 -37 c30 -20
57 -36 59 -36 2 0 98 107 212 238 114 130 218 248 230 262 l24 26 -98 96 -97
97 -165 -276z" />
      <path d="M3402 3898 c-53 -211 -182 -793 -179 -802 4 -11 216 -100 222 -94 4
4 65 806 65 848 0 30 -6 39 -44 63 -24 15 -45 27 -48 27 -3 0 -10 -19 -16 -42z" />
      <path d="M4111 3021 l-104 -520 49 -65 c26 -36 50 -66 53 -66 3 0 48 242 100
538 52 295 96 546 98 557 3 15 -8 27 -40 48 -24 15 -46 27 -48 27 -2 0 -51
-234 -108 -519z" />
      <path d="M2909 2557 c-134 -210 -243 -389 -243 -397 0 -11 290 -490 320 -529
5 -6 1044 550 1044 559 0 5 -93 135 -136 189 -2 2 -190 -65 -420 -148 -229
-83 -428 -151 -441 -151 -33 0 -73 42 -73 77 0 20 63 123 215 350 118 178 215
326 215 330 0 5 -30 20 -67 34 -38 15 -91 36 -119 47 l-52 21 -243 -382z" />
      <path d="M1358 2003 c-4 -173 -9 -192 -69 -252 -43 -43 -80 -61 -147 -69 l-57
-7 44 -47 c24 -26 69 -60 100 -75 113 -56 262 -29 355 63 122 122 122 326 0
448 -44 43 -118 81 -181 91 l-41 6 -4 -158z" />
      <path d="M1148 2071 c-52 -48 -94 -123 -104 -188 l-7 -43 46 0 c100 0 119 30
115 176 l-3 99 -47 -44z" />
      <path d="M2170 1999 c-184 -37 -335 -68 -335 -69 -1 0 1 -30 3 -66 8 -125 -35
-246 -121 -340 -43 -47 -56 -74 -131 -276 -46 -123 -95 -253 -109 -289 l-25
-66 69 -91 c38 -51 71 -92 73 -92 3 0 118 178 256 395 138 217 260 400 270
405 10 5 159 23 331 40 173 17 326 34 340 38 26 7 26 7 -120 241 -81 129 -151
236 -157 237 -5 1 -160 -29 -344 -67z" />
      <path d="M680 1364 c-206 -34 -390 -66 -407 -69 l-33 -6 0 -74 c0 -42 4 -75
10 -75 9 0 1121 195 1173 206 51 11 27 20 -39 16 -78 -5 -160 11 -226 44 -26
13 -60 24 -75 23 -15 -1 -197 -30 -403 -65z" />
      <path d="M920 725 c-206 -35 -390 -67 -407 -70 l-33 -6 0 -80 c0 -77 1 -79 22
-74 13 2 230 32 483 66 253 33 461 61 462 62 7 7 -121 162 -135 164 -9 1 -186
-27 -392 -62z" />
   </g>
</svg>